<?xml version="1.0" ?>
<svg id="Layer_1_1_" style="enable-background:new 0 0 64 64;" version="1.1" viewBox="0 0 64 64" xml:space="preserve" xmlns="http://www.w3.org/2000/svg" xmlns:xlink="http://www.w3.org/1999/xlink">
    <path d="M41,42h-2H21h-2c-3.314,0-6,2.686-6,6v13h34V48C47,44.686,44.314,42,41,42z" style="fill:#FFC885;"/>
    <path d="M41,42h-2H21h-2c-3.314,0-6,2.686-6,6v3c0-3.314,2.686-6,6-6h2h18h2c3.314,0,6,2.686,6,6v-3  C47,44.686,44.314,42,41,42z" style="fill:#FFD6A3;"/>
    <path d="M30.206,37.998c-1.88,0.034-3.648-0.414-5.206-1.213V41l5,6l5-6v-4.259  C33.563,37.509,31.942,37.966,30.206,37.998z" style="fill:#FFE5CF;"/>
    <path d="M19,13v14c0,6.144,5.037,11.111,11.206,10.998C36.262,37.887,41,32.692,41,26.635V13H19z" style="fill:#FFE5CF;"/>
    <path d="M48,18.704V11c0-4.418-3.582-8-8-8c-2.39,0-4.535,1.048-6,2.709L41.723,28  c2.23,2.812,4.838,5.317,7.759,7.441L53,38C49.721,32.097,48,25.457,48,18.704z" style="fill:#523C00;"/>
    <path d="M30,5c-7.18,0-13,5.82-13,13v5h2c0-2.992,0.946-5.758,2.545-8.034C23.563,12.544,26.601,11,30,11  c6.072,0,10.994,4.92,11,10.99L41,23h2v-5C43,10.82,37.18,5,30,5z" style="fill:#523C00;"/>
    <path d="M23,30v5.479c1.951,1.613,4.465,2.569,7.206,2.519c2.599-0.048,4.953-1.033,6.794-2.621V30H23z" style="fill:#BDD3F4;"/><path d="M25,39.179l-3.947,2.871c0,0,0.948,6.129,2.947,9.129l6-4l-5-6V39.179z" style="fill:#FF9C2F;"/>
    <path d="M39,42.089l-4-2.911v2l-5,6l6,4C38,48.179,39,42.089,39,42.089z" style="fill:#FF9C2F;"/>
        <circle cx="35" cy="26" r="1" style="fill:#FFFFFF;"/>
        <circle cx="25" cy="26" r="1" style="fill:#FFFFFF;"/>
    <path d="M33.387,13.099c0.988,4.03,3.852,7.317,7.612,8.891C40.994,15.92,36.072,11,30,11  c-3.399,0-6.437,1.544-8.455,3.966C19.946,17.242,19,20.008,19,23h1C26.305,23,31.634,18.83,33.387,13.099z" style="fill:#523C00;"/>
    <path d="M19,23h-1.5c-1.381,0-2.5,1.119-2.5,2.5v0c0,1.381,1.119,2.5,2.5,2.5H19" style="fill:#FFE5CF;"/>
    <path d="M41,23h1.5c1.381,0,2.5,1.119,2.5,2.5v0c0,1.381-1.119,2.5-2.5,2.5H41" style="fill:#FFE5CF;"/>
    <path d="M30,5c-7.18,0-13,5.82-13,13v2c0-7.18,5.82-13,13-13s13,5.82,13,13v-2C43,10.82,37.18,5,30,5z" style="fill:#6E5000;"/>
    <path d="M35,27.75c-0.965,0-1.75-0.785-1.75-1.75s0.785-1.75,1.75-1.75s1.75,0.785,1.75,1.75S35.965,27.75,35,27.75z M35,25.75  c-0.138,0-0.25,0.112-0.25,0.25c0,0.275,0.5,0.275,0.5,0C35.25,25.862,35.138,25.75,35,25.75z"/>
    <path d="M25,27.75c-0.965,0-1.75-0.785-1.75-1.75s0.785-1.75,1.75-1.75s1.75,0.785,1.75,1.75S25.965,27.75,25,27.75z M25,25.75  c-0.138,0-0.25,0.112-0.25,0.25c0,0.275,0.5,0.275,0.5,0C25.25,25.862,25.138,25.75,25,25.75z"/>
    <path d="M49,18.705V11c0-4.962-4.038-9-9-9c-2.337,0-4.569,0.918-6.24,2.528C32.562,4.193,31.304,4,30,4c-7.72,0-14,6.28-14,14  v4.351c-1.178,0.564-2,1.758-2,3.149c0,1.93,1.57,3.5,3.5,3.5h0.678c0.414,2.481,1.582,4.763,3.416,6.563  c0.731,0.718,1.544,1.319,2.407,1.82v1.286L20.796,41H19c-3.86,0-7,3.14-7,7v13c0,0.552,0.448,1,1,1h34c0.552,0,1-0.448,1-1V48  c0-3.86-3.14-7-7-7h-1.797L36,38.67v-1.351c2.806-1.689,4.892-4.516,5.664-7.845c2.13,2.539,4.547,4.825,7.23,6.777l3.519,2.559  C52.588,38.937,52.794,39,53,39c0.238,0,0.475-0.084,0.663-0.251c0.352-0.311,0.439-0.824,0.211-1.234  C50.686,31.775,49,25.271,49,18.705z M30,6c6.617,0,12,5.383,12,12v4h-0.002c0-0.004,0.001-0.007,0.001-0.011  C41.994,15.378,36.611,10,30,10c-3.572,0-6.934,1.577-9.273,4.392c-1.59,2.264-2.507,4.876-2.688,7.608H18v-4  C18,11.383,23.383,6,30,6z M24,34.991V31h12v3.894c-1.629,1.279-3.636,2.064-5.812,2.104C27.914,37.058,25.771,36.333,24,34.991z   M36.667,29H23.333L20,26.5V24c5.718,0,10.786-3.162,13.323-8.093c1.366,2.921,3.733,5.308,6.677,6.714V26.5L36.667,29z M20.038,22  c0.177-2.317,0.966-4.525,2.275-6.394C24.222,13.314,27.024,12,30,12c0.936,0,1.842,0.129,2.701,0.371  c-0.123,0.116-0.218,0.265-0.27,0.435C30.753,18.293,25.775,21.984,20.038,22z M34.399,13.021c2.824,1.39,4.902,4.073,5.455,7.271  C37.174,18.684,35.191,16.068,34.399,13.021z M42.5,27h-0.518C41.986,26.878,42,26.758,42,26.635V24h0.5c0.827,0,1.5,0.673,1.5,1.5  S43.327,27,42.5,27z M17.5,27c-0.827,0-1.5-0.673-1.5-1.5s0.673-1.5,1.5-1.5H18v3H17.5z M20.245,29.184L22,30.5v2.483  C21.148,31.849,20.551,30.561,20.245,29.184z M24,41.143v0.036c0,0.234,0.082,0.46,0.232,0.64l4.288,5.145l-4.189,2.793  c-1.202-2.356-1.93-5.875-2.186-7.265L24,41.143z M14,48c0-2.757,2.243-5,5-5h1.203c0.335,1.802,1.287,6.216,2.965,8.733  c0.147,0.221,0.376,0.374,0.636,0.426c0.065,0.013,0.131,0.02,0.196,0.02c0.196,0,0.389-0.058,0.555-0.168L29,49.047V60h-7v-4h-2v4  h-6V48z M46,48v12h-6v-4h-2v4h-7V49.047l4.445,2.963c0.221,0.147,0.492,0.201,0.751,0.148c0.26-0.052,0.489-0.205,0.636-0.426  c1.688-2.533,2.676-6.97,3.018-8.733H41C43.757,43,46,45.243,46,48z M37.903,42.528c-0.268,1.388-1.022,4.878-2.231,7.229  l-4.191-2.794l4.288-5.145c0.15-0.18,0.232-0.406,0.232-0.64v-0.036L37.903,42.528z M34,40.817l-4,4.8l-4-4.8v-2.511  C27.269,38.754,28.613,39,29.998,39c0.075,0,0.151-0.001,0.226-0.002c1.322-0.024,2.589-0.284,3.776-0.721V40.817z M38,32.808V30.5  l1.66-1.245C39.328,30.555,38.759,31.756,38,32.808z M50.07,34.633c-2.343-1.704-4.472-3.678-6.375-5.857  C45.035,28.286,46,27.008,46,25.5c0-1.391-0.822-2.585-2-3.149V18c0-5.607-3.321-10.441-8.092-12.674C37.09,4.474,38.519,4,40,4  c3.86,0,7,3.14,7,7v7.705c0,5.54,1.141,11.039,3.324,16.113L50.07,34.633z"/>
</svg>



